<?xml version="1.0" standalone="no"?>
<!DOCTYPE svg PUBLIC "-//W3C//DTD SVG 20010904//EN"
 "http://www.w3.org/TR/2001/REC-SVG-20010904/DTD/svg10.dtd">
<svg version="1.0" xmlns="http://www.w3.org/2000/svg"
 width="1200.000000pt" height="1200.000000pt" viewBox="0 0 1200.000000 1200.000000"
 preserveAspectRatio="xMidYMid meet">
<metadata>
Created by potrace 1.14, written by Peter Selinger 2001-2017
</metadata>
<g transform="translate(0.000000,1200.000000) scale(0.100000,-0.100000)"
fill="#000000" stroke="none">
<path d="M4595 8343 c-88 -12 -267 -90 -351 -151 l-41 -30 8 -56 c23 -143 112
-355 194 -458 53 -68 133 -118 187 -118 52 0 95 46 153 162 64 131 86 212 92
348 6 125 -3 176 -40 230 -38 58 -116 86 -202 73z"/>
<path d="M4240 7335 c-29 -16 -22 -20 50 -30 57 -8 103 -37 132 -83 36 -58 30
-149 -24 -357 l-43 -170 47 -150 c25 -82 58 -189 72 -236 45 -152 127 -246
251 -290 77 -27 206 -44 215 -29 43 70 63 672 30 895 -25 167 -74 295 -127
333 -29 20 -206 76 -353 112 -98 23 -213 26 -250 5z"/>
<path d="M4197 7249 c-45 -11 -83 -34 -92 -57 -12 -32 -35 -286 -45 -497 -5
-115 -18 -286 -30 -380 -11 -93 -20 -209 -20 -256 0 -48 -5 -133 -11 -190 -10
-100 -5 -184 11 -174 4 2 10 23 14 45 4 23 76 283 160 578 171 595 210 755
203 820 -6 52 -45 98 -91 107 -17 4 -38 8 -46 10 -8 1 -32 -1 -53 -6z"/>
<path d="M5011 7223 c-22 -78 -10 -158 40 -279 27 -65 34 -74 71 -89 122 -48
643 -118 1053 -141 111 -6 124 -5 163 15 23 12 42 26 42 31 0 6 -1 10 -3 10
-2 0 -65 27 -141 60 -177 77 -354 142 -756 278 -179 61 -349 120 -378 131 -71
28 -79 27 -91 -16z"/>
<path d="M9835 6673 c-90 -68 -443 -300 -585 -385 -414 -248 -865 -459 -1230
-576 -207 -67 -353 -101 -565 -132 -262 -38 -398 -45 -850 -45 -426 1 -566 7
-971 41 l-191 17 -114 -80 c-296 -209 -609 -401 -879 -541 -80 -41 -147 -77
-149 -79 -9 -7 43 -36 289 -161 575 -293 1106 -497 1730 -667 772 -209 1638
-323 2191 -287 225 15 300 30 408 83 449 220 800 1164 966 2594 27 225 29 265
18 264 -5 0 -35 -21 -68 -46z"/>
<path d="M6345 6494 c-616 -453 -1267 -797 -1830 -967 -379 -114 -675 -159
-1160 -177 -487 -17 -582 -29 -712 -91 -100 -47 -205 -156 -265 -274 -56 -110
-148 -389 -133 -403 22 -22 324 -62 465 -62 202 0 454 35 695 97 784 200 1768
772 2640 1533 160 139 433 397 446 421 20 37 -16 19 -146 -77z"/>
<path d="M3306 5873 c3 -27 11 -56 16 -67 6 -10 73 -100 151 -200 77 -99 142
-183 143 -185 5 -7 239 21 389 46 83 13 220 42 305 64 177 45 430 127 430 139
0 4 -24 11 -52 15 -29 3 -168 24 -308 46 -140 21 -262 39 -271 39 -16 0 -22
-17 -45 -127 -4 -20 -10 -23 -58 -23 l-54 0 -13 92 -14 93 -100 18 c-55 9
-192 35 -305 57 -113 22 -209 40 -214 40 -4 0 -4 -21 0 -47z"/>
</g>
</svg>
