<svg width="129" height="128" viewBox="0 0 129 128" fill="none" xmlns="http://www.w3.org/2000/svg">
<g id="foursquare-logo-2445 1">
<g id="Group">
<path id="Vector" d="M94.7714 18.9625L91.7423 33.5872C91.3966 35.1453 89.9256 36.5292 88.1075 36.5292H61.8003C58.8582 36.5292 56.4346 38.9528 56.4346 41.8949V45.0969C56.4346 48.039 58.8582 50.4626 61.8003 50.4626H84.0401C86.1167 50.4626 87.8476 52.4535 87.4149 54.6158C86.9821 56.8652 84.6456 68.2892 84.3857 69.5004C84.2129 70.7986 82.8275 72.4424 80.751 72.4424H62.5787C58.7711 72.5295 57.9928 72.6152 55.742 75.3845C53.4925 78.1537 33.5879 103.077 33.5879 103.077C33.4151 103.337 33.2423 103.25 33.2423 102.99V18.2684C33.2423 16.2775 34.8861 14.6337 36.877 14.6337H91.4823C93.3861 14.6351 95.2913 16.5403 94.7714 18.9625ZM98.7518 0.703125C98.7518 0.703125 40.6846 0.703125 31.3385 0.703125C22.0796 0.703125 19.3103 7.71267 19.3103 12.1258V119.26C19.3103 124.538 21.9924 126.097 23.4635 126.702C24.9345 127.308 28.8292 127.74 31.5984 124.971C31.5984 124.971 63.617 87.6726 64.1368 87.0671C64.6567 86.4615 64.9152 86.4615 65.2622 86.4615C65.6079 86.4615 78.8486 86.4615 85.5125 86.4615C94.1659 86.4615 95.8111 80.4903 96.7623 76.8555C97.5407 73.8263 106.454 30.558 109.223 16.8845C111.3 6.32875 108.618 0.703125 98.7518 0.703125Z" fill="#FA4778"/>
</g>
</g>
</svg>
