<svg width="124" height="124" viewBox="0 0 124 124" fill="none" xmlns="http://www.w3.org/2000/svg">
<g id="tripadvisor-icon 1" clip-path="url(#clip0_903_308)">
<g id="Group">
<path id="Vector" d="M61.9299 24.8774C45.7846 24.8774 31.1979 28.9435 19.6954 36.4603L0.344849 36.4779C0.344849 36.4779 4.91061 42.5725 6.39218 48.7178L55.3674 86.2973L61.9409 96.1245L68.5782 86.2137L117.666 48.6925C119.123 42.5065 123.742 36.3315 123.742 36.3315L103.121 36.3172C91.5545 28.8433 77.4984 24.8774 61.9277 24.8774H61.9299Z" fill="#000A12"/>
<path id="Vector_2" d="M91.8738 36.2347C88.5513 36.3282 85.2659 36.9582 82.1445 38.1004C78.331 39.4986 74.8327 41.6391 71.8518 44.3981C68.871 47.1572 66.4669 50.4799 64.7785 54.1741C63.2177 57.5588 62.335 61.1373 62.0543 64.7377C60.9062 48.9534 47.8793 36.4317 31.8804 36.1048C40.7301 32.3183 50.8985 30.271 61.9189 30.271C73.0141 30.271 83.0317 32.271 91.8738 36.2347Z" fill="#FCC40F"/>
<g id="Group_2">
<path id="Vector_3" d="M30.8809 95.9045C46.1589 95.9045 58.5441 83.5192 58.5441 68.2413C58.5441 52.9633 46.1589 40.5781 30.8809 40.5781C15.603 40.5781 3.21777 52.9633 3.21777 68.2413C3.21777 83.5192 15.603 95.9045 30.8809 95.9045Z" fill="white" stroke="#000A12" stroke-width="3.32175"/>
<path id="Vector_4" d="M30.8809 80.6794C37.7503 80.6794 43.319 75.1107 43.319 68.2413C43.319 61.3719 37.7503 55.8032 30.8809 55.8032C24.0116 55.8032 18.4429 61.3719 18.4429 68.2413C18.4429 75.1107 24.0116 80.6794 30.8809 80.6794Z" stroke="#000A12" stroke-width="2.8985"/>
</g>
<path id="Vector_5" d="M30.8809 73.3781C33.718 73.3781 36.018 71.0781 36.018 68.241C36.018 65.4039 33.718 63.104 30.8809 63.104C28.0438 63.104 25.7439 65.4039 25.7439 68.241C25.7439 71.0781 28.0438 73.3781 30.8809 73.3781Z" fill="#EF6A45"/>
<g id="Group_3">
<path id="Vector_6" d="M93.1186 95.8493C108.397 95.8493 120.782 83.4641 120.782 68.1861C120.782 52.9082 108.397 40.5229 93.1186 40.5229C77.8407 40.5229 65.4554 52.9082 65.4554 68.1861C65.4554 83.4641 77.8407 95.8493 93.1186 95.8493Z" fill="white" stroke="#000A12" stroke-width="3.32175"/>
<path id="Vector_7" d="M93.1186 80.6242C99.988 80.6242 105.557 75.0555 105.557 68.1861C105.557 61.3168 99.988 55.748 93.1186 55.748C86.2493 55.748 80.6805 61.3168 80.6805 68.1861C80.6805 75.0555 86.2493 80.6242 93.1186 80.6242Z" stroke="#000A12" stroke-width="2.8985"/>
</g>
<path id="Vector_8" d="M93.1186 73.3234C95.9557 73.3234 98.2556 71.0235 98.2556 68.1864C98.2556 65.3492 95.9557 63.0493 93.1186 63.0493C90.2815 63.0493 87.9816 65.3492 87.9816 68.1864C87.9816 71.0235 90.2815 73.3234 93.1186 73.3234Z" fill="#00B087"/>
</g>
</g>
<defs>
<clipPath id="clip0_903_308">
<rect width="124" height="124" fill="white" transform="translate(-0.000488281)"/>
</clipPath>
</defs>
</svg>
